<svg width="32" height="32" viewBox="0 0 32 32" fill="none" xmlns="http://www.w3.org/2000/svg">
<path d="M28 17.0811C27.7898 19.3555 26.9362 21.523 25.5391 23.3301C24.142 25.1371 22.2591 26.5088 20.1109 27.2848C17.9626 28.0608 15.6378 28.2089 13.4084 27.7118C11.179 27.2147 9.13731 26.0929 7.52219 24.4778C5.90708 22.8627 4.78534 20.821 4.28824 18.5916C3.79114 16.3622 3.93925 14.0374 4.71522 11.8891C5.49119 9.74086 6.86293 7.85801 8.66994 6.46089C10.477 5.06378 12.6445 4.21019 14.9189 4C13.5873 5.80151 12.9465 8.02113 13.1131 10.2552C13.2797 12.4892 14.2426 14.5892 15.8267 16.1733C17.4108 17.7574 19.5108 18.7203 21.7448 18.8869C23.9789 19.0535 26.1985 18.0252 28 16.6936V17.0811Z" stroke="#00CC96" stroke-width="2.5" stroke-linecap="round" stroke-linejoin="round"/>
</svg>
