<svg width="32" height="32" viewBox="0 0 32 32" fill="none" xmlns="http://www.w3.org/2000/svg">
<path d="M8.16667 2L4 7.6V27.2C4 27.9426 4.29266 28.6548 4.81359 29.1799C5.33453 29.705 6.04107 30 6.77778 30H26.2222C26.9589 30 27.6655 29.705 28.1864 29.1799C28.7073 28.6548 29 27.9426 29 27.2V7.6L24.8333 2H8.16667Z" stroke="#00CC96" stroke-width="2.5" stroke-linecap="round" stroke-linejoin="round"/>
<path d="M4 7.59998H29" stroke="#00CC96" stroke-width="2.5" stroke-linecap="round" stroke-linejoin="round"/>
<path d="M22.0556 13.1998C22.0556 14.685 21.4702 16.1094 20.4284 17.1596C19.3865 18.2098 17.9734 18.7998 16.5 18.7998C15.0266 18.7998 13.6135 18.2098 12.5716 17.1596C11.5298 16.1094 10.9444 14.685 10.9444 13.1998" stroke="#00CC96" stroke-width="2.5" stroke-linecap="round" stroke-linejoin="round"/>
</svg>
