<svg width="100" height="44" viewBox="0 0 100 44" fill="none" xmlns="http://www.w3.org/2000/svg">
<path d="M25.4637 1.107C25.3417 1.122 24.9767 1.163 24.5157 1.21C24.1957 1.243 23.8837 1.269 23.6747 1.286C23.2587 0.529 22.5207 0 21.5987 0C20.8737 0 20.2847 0.225 19.7897 0.843C19.3747 1.362 19.1047 2.078 18.8417 2.45C16.7007 5.484 13.2887 6.014 9.28868 6.014C8.36668 6.014 7.47268 5.9 6.60968 5.702C6.47068 5.67 6.33468 5.81 6.39768 5.938C8.01568 9.211 11.8737 11.576 15.0077 12.094V16.141H15.9207V12.19C16.0117 12.194 16.1047 12.204 16.1937 12.204C16.7577 12.208 17.2657 12.163 17.7477 12.092V16.141H18.6607V11.904C20.1397 11.501 21.2357 10.7 22.1857 9.544C23.3307 8.151 23.9987 5.676 24.0387 3.267C24.1887 3.114 24.5327 2.754 24.7647 2.442C25.2987 1.728 25.7167 1.075 25.4637 1.107ZM21.8067 2.708C21.4307 2.708 21.1257 2.403 21.1257 2.027C21.1257 1.651 21.4307 1.346 21.8067 1.346C22.1827 1.346 22.4877 1.651 22.4877 2.027C22.4877 2.403 22.1827 2.708 21.8067 2.708Z" fill="#00CC96"/>
<path d="M19.181 16.134V37.048H14.341V28.473H4.84V37.048H0V16.134H4.84V24.38H14.341V16.134H19.181Z" fill="white"/>
<path d="M39.7663 20.974L32.5063 38.034C30.9523 41.918 28.7413 43.083 25.8433 43.083C24.1993 43.083 22.4083 42.545 21.3633 41.619L23.0663 38.303C23.7823 38.93 24.7683 39.319 25.6943 39.319C26.9793 39.319 27.6963 38.752 28.3233 37.318L28.3843 37.169L21.4223 20.974H26.2323L30.7433 31.879L35.2843 20.974H39.7663Z" fill="white"/>
<path d="M57.8111 20.974V34.359C57.8111 40.335 54.5841 43.083 48.7891 43.083C45.7411 43.083 42.7841 42.336 40.9011 40.872L42.7541 37.526C44.1281 38.631 46.3691 39.348 48.4311 39.348C51.7171 39.348 53.1521 37.854 53.1521 34.956V34.269C51.9261 35.613 50.1641 36.27 48.0731 36.27C43.6211 36.27 40.0361 33.193 40.0361 28.502C40.0361 23.812 43.6211 20.734 48.0731 20.734C50.3131 20.734 52.1661 21.481 53.3901 23.034V20.974H57.8111ZM53.2101 28.503C53.2101 26.143 51.4471 24.56 48.9971 24.56C46.5471 24.56 44.7551 26.143 44.7551 28.503C44.7551 30.863 46.5471 32.447 48.9971 32.447C51.4471 32.447 53.2101 30.863 53.2101 28.503Z" fill="white"/>
<path d="M78.7242 20.974V34.359C78.7242 40.335 75.4972 43.083 69.7022 43.083C66.6542 43.083 63.6972 42.336 61.8142 40.872L63.6672 37.526C65.0412 38.631 67.2822 39.348 69.3442 39.348C72.6302 39.348 74.0652 37.854 74.0652 34.956V34.269C72.8392 35.613 71.0772 36.27 68.9862 36.27C64.5342 36.27 60.9492 33.193 60.9492 28.502C60.9492 23.812 64.5342 20.734 68.9862 20.734C71.2262 20.734 73.0792 21.481 74.3032 23.034V20.974H78.7242ZM74.1232 28.503C74.1232 26.143 72.3602 24.56 69.9102 24.56C67.4602 24.56 65.6682 26.143 65.6682 28.503C65.6682 30.863 67.4602 32.447 69.9102 32.447C72.3602 32.447 74.1232 30.863 74.1232 28.503Z" fill="white"/>
<path d="M98.7123 30.326H86.5523C87.0003 32.327 88.7033 33.553 91.1543 33.553C92.8563 33.553 94.0823 33.045 95.1873 31.999L97.6663 34.688C96.1723 36.391 93.9323 37.288 91.0333 37.288C85.4763 37.288 81.8613 33.792 81.8613 29.012C81.8613 24.201 85.5363 20.736 90.4353 20.736C95.1563 20.736 98.8013 23.903 98.8013 29.071C98.8023 29.429 98.7413 29.937 98.7123 30.326ZM86.4923 27.607H94.4093C94.0813 25.575 92.5573 24.261 90.4663 24.261C88.3453 24.261 86.8213 25.545 86.4923 27.607Z" fill="white"/>
</svg>
