<svg width="16" height="16" viewBox="0 0 16 16" fill="none" xmlns="http://www.w3.org/2000/svg">
<path d="M14 8.54054C13.8949 9.67776 13.4681 10.7615 12.7696 11.665C12.071 12.5685 11.1296 13.2544 10.0554 13.6424C8.9813 14.0304 7.81888 14.1044 6.70419 13.8559C5.5895 13.6073 4.56866 13.0465 3.7611 12.2389C2.95354 11.4313 2.39267 10.4105 2.14412 9.29581C1.89557 8.18112 1.96962 7.0187 2.35761 5.94457C2.74559 4.87043 3.43147 3.929 4.33497 3.23045C5.23848 2.53189 6.32224 2.10509 7.45946 2C6.79366 2.90076 6.47327 4.01056 6.55656 5.12758C6.63986 6.24459 7.12132 7.2946 7.91336 8.08664C8.7054 8.87869 9.75541 9.36014 10.8724 9.44344C11.9894 9.52673 13.0992 9.0126 14 8.3468V8.54054Z" stroke="white" stroke-linecap="round" stroke-linejoin="round"/>
</svg>
